<svg width="24" height="24" viewBox="0 0 24 24" fill="none" xmlns="http://www.w3.org/2000/svg">
<path d="M12.0053 6.86981C9.16839 6.86981 6.88013 9.15807 6.88013 11.995C6.88013 14.8319 9.16839 17.1202 12.0053 17.1202C14.8422 17.1202 17.1305 14.8319 17.1305 11.995C17.1305 9.15807 14.8422 6.86981 12.0053 6.86981ZM12.0053 15.327C10.172 15.327 8.67327 13.8327 8.67327 11.995C8.67327 10.1572 10.1676 8.66295 12.0053 8.66295C13.843 8.66295 15.3373 10.1572 15.3373 11.995C15.3373 13.8327 13.8386 15.327 12.0053 15.327ZM18.5355 6.66016C18.5355 7.32478 18.0003 7.85559 17.3401 7.85559C16.6755 7.85559 16.1447 7.32032 16.1447 6.66016C16.1447 6 16.68 5.46473 17.3401 5.46473C18.0003 5.46473 18.5355 6 18.5355 6.66016ZM21.93 7.87343C21.8542 6.27209 21.4884 4.85364 20.3153 3.68497C19.1466 2.51631 17.7282 2.15054 16.1268 2.07025C14.4764 1.97658 9.52969 1.97658 7.87929 2.07025C6.28241 2.14608 4.86396 2.51185 3.69083 3.68051C2.51771 4.84918 2.1564 6.26763 2.07611 7.86897C1.98244 9.51937 1.98244 14.4661 2.07611 16.1165C2.15194 17.7179 2.51771 19.1363 3.69083 20.305C4.86396 21.4736 6.27795 21.8394 7.87929 21.9197C9.52969 22.0134 14.4764 22.0134 16.1268 21.9197C17.7282 21.8439 19.1466 21.4781 20.3153 20.305C21.484 19.1363 21.8497 17.7179 21.93 16.1165C22.0237 14.4661 22.0237 9.52383 21.93 7.87343ZM19.7979 17.8874C19.45 18.7616 18.7764 19.4352 17.8977 19.7876C16.5818 20.3094 13.4594 20.189 12.0053 20.189C10.5512 20.189 7.42431 20.305 6.11291 19.7876C5.23864 19.4396 4.5651 18.7661 4.21272 17.8874C3.69083 16.5715 3.81127 13.4491 3.81127 11.995C3.81127 10.5408 3.69529 7.41399 4.21272 6.10259C4.56064 5.22832 5.23418 4.55478 6.11291 4.2024C7.42877 3.68051 10.5512 3.80095 12.0053 3.80095C13.4594 3.80095 16.5863 3.68497 17.8977 4.2024C18.772 4.55032 19.4455 5.22386 19.7979 6.10259C20.3198 7.41845 20.1993 10.5408 20.1993 11.995C20.1993 13.4491 20.3198 16.576 19.7979 17.8874Z" fill="white"/>
</svg>
