<svg width="213" height="40" viewBox="0 0 213 40" fill="none" xmlns="http://www.w3.org/2000/svg">
<rect width="213" height="40" rx="6" fill="#397BFF"/>
<path d="M19.5116 20C18.9889 21.0827 18.7276 22.0253 18.7276 22.828C18.7276 23.6773 18.9842 24.3213 19.4976 24.76C20.0109 25.1987 20.7436 25.418 21.6956 25.418C22.4142 25.418 23.0256 25.2873 23.5296 25.026C24.0336 24.774 24.4069 24.4427 24.6496 24.032C24.9016 23.6307 25.0276 23.206 25.0276 22.758C25.0276 22.3567 24.9436 21.8293 24.7756 21.176C24.6076 20.5227 24.4209 19.8973 24.2156 19.3L25.4056 18.726C25.6856 19.538 25.8909 20.2707 26.0216 20.924C26.1616 21.5773 26.2316 22.1887 26.2316 22.758C26.2316 23.4767 26.0496 24.158 25.6856 24.802C25.3216 25.446 24.7942 25.964 24.1036 26.356C23.4222 26.7573 22.6196 26.958 21.6956 26.958C20.8182 26.958 20.0622 26.7807 19.4276 26.426C18.7929 26.0807 18.3076 25.6093 17.9716 25.012C17.6449 24.4147 17.4816 23.7427 17.4816 22.996C17.4816 22.436 17.5749 21.8387 17.7616 21.204C17.9482 20.5693 18.1676 20 18.4196 19.496L19.5116 20ZM20.8976 18.866C21.2616 18.4833 21.6256 18.1193 21.9896 17.774C22.3536 18.1193 22.7176 18.4833 23.0816 18.866L21.9896 19.958L20.8976 18.866ZM29.0759 13.546C29.1506 14.078 29.2113 14.9273 29.2579 16.094C29.3046 17.2513 29.3279 18.3293 29.3279 19.328V19.944C29.3186 20.504 29.3419 20.9193 29.3979 21.19C29.4539 21.4607 29.5799 21.6567 29.7759 21.778C29.9719 21.8993 30.2846 21.96 30.7139 21.96H30.7839L30.8679 22.73L30.7839 23.5H30.7139C29.7246 23.5 29.0293 23.2433 28.6279 22.73C28.2359 22.2073 28.0399 21.3813 28.0399 20.252C28.0399 19.2253 28.0119 18.0587 27.9559 16.752C27.9093 15.436 27.8393 14.4653 27.7459 13.84L29.0759 13.546ZM30.8997 21.96H31.2917C33.0464 21.96 34.0964 21.68 34.4417 21.12C34.4697 21.036 34.4837 20.9473 34.4837 20.854C34.4837 20.4247 34.2271 19.888 33.7137 19.244C33.2004 18.6 32.4817 17.9187 31.5577 17.2L31.7117 15.8L36.8637 13.602L37.2837 14.834L33.0137 16.682C33.7044 17.2607 34.3204 17.9327 34.8617 18.698C35.4124 19.454 35.6877 20.1773 35.6877 20.868C35.6877 21.0827 35.6504 21.302 35.5757 21.526C35.3611 22.198 34.8851 22.6973 34.1477 23.024C33.4104 23.3413 32.4584 23.5 31.2917 23.5H30.8997V21.96ZM31.8657 14.148L36.3457 12.258L36.5557 12.846L31.7957 14.862L31.8657 14.148ZM41.6079 16.29L43.5259 20.826C43.7033 21.2553 43.9039 21.554 44.1279 21.722C44.3519 21.8807 44.6599 21.96 45.0519 21.96H45.2059L45.2899 22.73L45.2059 23.5H45.0519C44.4453 23.5 43.9319 23.3413 43.5119 23.024C43.0919 22.6973 42.7279 22.1887 42.4199 21.498L40.4459 16.906L41.6079 16.29ZM38.0519 21.414C38.4159 21.6193 38.7613 21.7873 39.0879 21.918C39.4239 22.0393 39.8299 22.1 40.3059 22.1C41.2393 22.1 42.0746 21.792 42.8119 21.176L43.4979 22.114C43.2553 22.366 43.0219 22.5853 42.7979 22.772C42.5739 22.9587 42.2566 23.136 41.8459 23.304C41.4446 23.472 40.9733 23.556 40.4319 23.556C39.7693 23.556 39.1999 23.4533 38.7239 23.248C38.2479 23.0427 37.8186 22.8 37.4359 22.52L38.0519 21.414ZM45.3177 21.96H45.4297C46.111 21.96 46.6197 21.89 46.9557 21.75C47.301 21.6007 47.525 21.3627 47.6277 21.036C47.665 20.9147 47.6837 20.7513 47.6837 20.546C47.6837 20.2473 47.6277 19.7527 47.5157 19.062L48.6777 18.824C48.8084 19.4493 48.8737 20.2053 48.8737 21.092C48.9204 21.3627 49.0464 21.5773 49.2517 21.736C49.4664 21.8853 49.737 21.96 50.0637 21.96H50.1617L50.2457 22.73L50.1617 23.5H50.0637C49.6064 23.5 49.2004 23.3693 48.8457 23.108C48.5004 22.8467 48.2437 22.5107 48.0757 22.1L48.3977 22.156C48.1924 22.6413 47.847 22.9867 47.3617 23.192C46.8764 23.3973 46.2324 23.5 45.4297 23.5H45.3177V21.96ZM46.0317 16.626C46.3957 16.2433 46.7597 15.8793 47.1237 15.534C47.4877 15.8793 47.8517 16.2433 48.2157 16.626L47.1237 17.718L46.0317 16.626ZM50.2708 21.96H50.9988C51.7268 21.96 52.2495 21.8713 52.5668 21.694C52.8842 21.5167 53.0428 21.2413 53.0428 20.868C53.0428 20.616 52.9448 20.1867 52.7488 19.58C52.5622 18.964 52.4128 18.5393 52.3008 18.306L53.4628 17.676C53.6402 18.04 53.8222 18.5487 54.0088 19.202C54.1955 19.846 54.2888 20.4013 54.2888 20.868C54.2888 21.736 54.0042 22.394 53.4348 22.842C52.8748 23.2807 52.0628 23.5 50.9988 23.5H50.2708V21.96ZM51.3488 15.814C51.7128 15.4313 52.0768 15.0673 52.4408 14.722C52.8048 15.0673 53.1688 15.4313 53.5328 15.814L52.4408 16.906L51.3488 15.814ZM56.1662 23.416C56.2409 22.856 56.2782 21.876 56.2782 20.476C56.2782 19.1973 56.2455 17.886 56.1802 16.542C56.1242 15.1887 56.0589 14.288 55.9842 13.84L57.3142 13.546C57.3795 14.0127 57.4449 14.932 57.5102 16.304C57.5755 17.676 57.6082 19.0013 57.6082 20.28C57.6082 21.736 57.5615 22.8327 57.4682 23.57L56.1662 23.416ZM57.6904 26.23C58.2971 26.006 58.8431 25.726 59.3284 25.39C59.8231 25.054 60.2104 24.704 60.4904 24.34C60.7798 23.9853 60.9244 23.654 60.9244 23.346C60.9244 22.954 60.6771 21.7967 60.1824 19.874L61.4144 19.398C61.6291 20.0607 61.8018 20.7607 61.9324 21.498C62.0724 22.226 62.1424 22.842 62.1424 23.346C62.1424 24.2047 61.7831 25.012 61.0644 25.768C60.3551 26.5333 59.4311 27.126 58.2924 27.546L57.6904 26.23ZM70.9026 18.474C69.904 19.3047 69.372 20.0607 69.3066 20.742C69.2973 20.7887 69.2926 20.854 69.2926 20.938C69.2926 21.274 69.4093 21.5447 69.6426 21.75C69.8853 21.946 70.2353 22.044 70.6926 22.044C71.1126 22.044 71.458 21.9553 71.7286 21.778C72.0086 21.5913 72.1626 21.3533 72.1906 21.064C72.1813 20.5507 71.9293 20.042 71.4346 19.538C70.94 19.0247 70.1513 18.4367 69.0686 17.774L69.8386 16.57C71.024 17.27 71.906 17.9747 72.4846 18.684C73.0726 19.384 73.3666 20.126 73.3666 20.91C73.3666 21.414 73.2453 21.8667 73.0026 22.268C72.7693 22.6693 72.4426 22.982 72.0226 23.206C71.612 23.43 71.15 23.542 70.6366 23.542C69.8433 23.542 69.218 23.3227 68.7606 22.884C68.3126 22.4453 68.0886 21.8853 68.0886 21.204C68.0886 20.9427 68.1213 20.6953 68.1866 20.462C68.3266 19.902 68.5646 19.384 68.9006 18.908C69.2366 18.432 69.6473 17.9607 70.1326 17.494L70.9026 18.474ZM76.2244 13.546C76.299 14.078 76.3597 14.9273 76.4064 16.094C76.453 17.2513 76.4764 18.3293 76.4764 19.328V19.944C76.467 20.504 76.4904 20.9193 76.5464 21.19C76.6024 21.4607 76.7284 21.6567 76.9244 21.778C77.1204 21.8993 77.433 21.96 77.8624 21.96H77.9324L78.0164 22.73L77.9324 23.5H77.8624C76.873 23.5 76.1777 23.2433 75.7764 22.73C75.3844 22.2073 75.1884 21.3813 75.1884 20.252C75.1884 19.2253 75.1604 18.0587 75.1044 16.752C75.0577 15.436 74.9877 14.4653 74.8944 13.84L76.2244 13.546ZM85.1494 23.5C84.6921 23.5 84.2721 23.3693 83.8894 23.108C83.5068 22.8467 83.1428 22.492 82.7974 22.044C82.4614 21.596 81.9948 20.924 81.3974 20.028C81.3788 20 81.3508 19.9627 81.3134 19.916C81.2854 19.8693 81.2528 19.818 81.2154 19.762L82.0274 18.936C82.5128 19.692 82.9188 20.28 83.2454 20.7C83.5721 21.12 83.8848 21.4373 84.1834 21.652C84.4914 21.8573 84.8134 21.96 85.1494 21.96H85.3454L85.4294 22.73L85.3454 23.5H85.1494ZM77.9114 21.96H78.3034C80.0581 21.96 81.1081 21.68 81.4534 21.12C81.4814 21.036 81.4954 20.9473 81.4954 20.854C81.4954 20.4247 81.2388 19.888 80.7254 19.244C80.2121 18.6 79.4934 17.9187 78.5694 17.2L78.7234 15.8L83.8754 13.602L84.2954 14.834L80.0254 16.682C80.7161 17.2607 81.3321 17.9327 81.8734 18.698C82.4241 19.454 82.6994 20.1773 82.6994 20.868C82.6994 21.0827 82.6621 21.302 82.5874 21.526C82.3728 22.198 81.8968 22.6973 81.1594 23.024C80.4221 23.3413 79.4701 23.5 78.3034 23.5H77.9114V21.96ZM78.8774 14.148L83.3574 12.258L83.5674 12.846L78.8074 14.862L78.8774 14.148ZM93.2749 21.96C93.6015 21.96 93.8489 21.8713 94.0169 21.694C94.1849 21.5073 94.2689 21.246 94.2689 20.91C94.2689 20.6113 94.1755 20.1867 93.9889 19.636C93.8115 19.076 93.6529 18.6373 93.5129 18.32L94.6469 17.69C94.8336 18.0913 95.0202 18.6093 95.2069 19.244C95.4029 19.8787 95.5009 20.4433 95.5009 20.938C95.5009 21.414 95.4029 21.848 95.2069 22.24C95.0202 22.6227 94.7589 22.9307 94.4229 23.164C94.0869 23.388 93.7042 23.5 93.2749 23.5H93.2469V21.96H93.2749ZM89.4809 23.5V21.96H89.5229C89.7935 21.96 90.0315 21.8853 90.2369 21.736C90.4422 21.5773 90.6289 21.3487 90.7969 21.05C91.0022 20.6673 91.1609 20.084 91.2729 19.3L92.4489 19.356C92.3369 19.944 92.2809 20.406 92.2809 20.742C92.2809 21.1433 92.3602 21.4467 92.5189 21.652C92.6775 21.8573 92.9295 21.96 93.2749 21.96H93.3029L93.3869 22.73L93.3029 23.5H93.2749C92.7429 23.5 92.3135 23.3507 91.9869 23.052C91.6602 22.744 91.4502 22.3147 91.3569 21.764L91.6229 21.736C91.4082 22.2587 91.1142 22.6833 90.7409 23.01C90.3769 23.3367 89.9662 23.5 89.5089 23.5H89.4809ZM85.4629 23.5L85.3789 22.73L85.4629 21.96H85.5329C85.8689 21.96 86.1815 21.8853 86.4709 21.736C86.7695 21.5867 86.9982 21.3953 87.1569 21.162C87.3435 20.9193 87.4882 20.6533 87.5909 20.364C87.7029 20.0747 87.8009 19.762 87.8849 19.426L89.0609 19.552C89.0515 19.5987 89.0002 19.79 88.9069 20.126C88.8135 20.462 88.7669 20.7793 88.7669 21.078C88.7669 21.3673 88.8229 21.5867 88.9349 21.736C89.0562 21.8853 89.2429 21.96 89.4949 21.96H89.5229L89.6069 22.73L89.5229 23.5H89.4669C89.0469 23.5 88.6922 23.3787 88.4029 23.136C88.1135 22.8933 87.9315 22.5667 87.8569 22.156C87.2409 23.052 86.4615 23.5 85.5189 23.5H85.4629ZM91.8609 13.812L92.1549 14.106C92.5562 14.5073 92.7569 14.708 92.7569 14.708L91.8609 15.604L90.9789 14.708L91.8609 13.812ZM92.1549 16.29C92.1549 16.29 92.3789 16.066 92.8269 15.618L93.1629 15.282L94.1709 16.29L93.8349 16.626C93.3869 17.074 93.1629 17.298 93.1629 17.298C92.8362 16.9527 92.5002 16.6167 92.1549 16.29ZM89.5509 16.29C89.5509 16.29 89.7749 16.066 90.2229 15.618L90.5589 15.282L91.5669 16.29L91.2309 16.626C90.7829 17.074 90.5589 17.298 90.5589 17.298C90.2322 16.9527 89.8962 16.6167 89.5509 16.29ZM98.4255 13.546C98.5002 14.078 98.5609 14.9273 98.6075 16.094C98.6542 17.2513 98.6775 18.3293 98.6775 19.328V19.944C98.6682 20.504 98.6915 20.9193 98.7475 21.19C98.8035 21.4607 98.9295 21.6567 99.1255 21.778C99.3215 21.8993 99.6342 21.96 100.064 21.96H100.134L100.218 22.73L100.134 23.5H100.064C99.0742 23.5 98.3789 23.2433 97.9775 22.73C97.5855 22.2073 97.3895 21.3813 97.3895 20.252C97.3895 19.2253 97.3615 18.0587 97.3055 16.752C97.2589 15.436 97.1889 14.4653 97.0955 13.84L98.4255 13.546ZM100.249 21.96H100.977C101.705 21.96 102.228 21.8713 102.545 21.694C102.863 21.5167 103.021 21.2413 103.021 20.868C103.021 20.616 102.923 20.1867 102.727 19.58C102.541 18.964 102.391 18.5393 102.279 18.306L103.441 17.676C103.619 18.04 103.801 18.5487 103.987 19.202C104.174 19.846 104.267 20.4013 104.267 20.868C104.267 21.736 103.983 22.394 103.413 22.842C102.853 23.2807 102.041 23.5 100.977 23.5H100.249V21.96ZM100.207 25.824C100.571 25.4413 100.935 25.0773 101.299 24.732C101.663 25.0773 102.027 25.4413 102.391 25.824L101.299 26.916L100.207 25.824ZM110.211 22.1C110.23 21.652 110.379 21.288 110.659 21.008C110.949 20.7187 111.294 20.574 111.695 20.574C111.854 20.574 111.994 20.5927 112.115 20.63C112.479 19.8647 112.881 19.244 113.319 18.768C113.758 18.292 114.225 18.04 114.719 18.012C115.214 17.984 115.643 18.1147 116.007 18.404C116.381 18.6933 116.665 19.076 116.861 19.552C117.067 20.028 117.169 20.5273 117.169 21.05C117.169 21.5633 117.071 22.0347 116.875 22.464C116.679 22.884 116.385 23.2013 115.993 23.416C115.807 23.5187 115.597 23.57 115.363 23.57C115.009 23.57 114.561 23.4627 114.019 23.248C113.478 23.024 112.769 22.6647 111.891 22.17C111.854 22.142 111.807 22.128 111.751 22.128C111.611 22.128 111.537 22.212 111.527 22.38V22.8C111.527 23.444 111.551 24.13 111.597 24.858C111.644 25.586 111.714 26.496 111.807 27.588C111.835 27.8307 111.849 28.0173 111.849 28.148C111.859 28.288 111.868 28.386 111.877 28.442L110.561 28.694L110.505 28.106C110.412 27.0327 110.337 26.09 110.281 25.278C110.225 24.466 110.197 23.682 110.197 22.926C110.197 22.5433 110.202 22.268 110.211 22.1ZM113.179 21.19C114.187 21.8247 114.911 22.142 115.349 22.142C115.461 22.142 115.541 22.1233 115.587 22.086C115.737 22.0113 115.844 21.89 115.909 21.722C115.984 21.5447 116.021 21.3393 116.021 21.106C116.021 20.6767 115.909 20.2893 115.685 19.944C115.471 19.5893 115.186 19.412 114.831 19.412C114.355 19.412 113.805 20.0047 113.179 21.19ZM119.004 23.416C119.079 22.856 119.116 21.876 119.116 20.476C119.116 19.1973 119.083 17.886 119.018 16.542C118.962 15.1887 118.897 14.288 118.822 13.84L120.152 13.546C120.217 14.0127 120.283 14.932 120.348 16.304C120.413 17.676 120.446 19.0013 120.446 20.28C120.446 21.736 120.399 22.8327 120.306 23.57L119.004 23.416ZM125.876 23.5C125.279 23.5 124.808 23.29 124.462 22.87C124.126 22.4407 123.842 21.834 123.608 21.05L124.546 20.476C124.677 21.0267 124.84 21.414 125.036 21.638C125.242 21.8527 125.522 21.96 125.876 21.96H125.974L126.058 22.73L125.974 23.5H125.876ZM120.528 26.23C121.135 26.006 121.681 25.726 122.166 25.39C122.661 25.054 123.048 24.704 123.328 24.34C123.618 23.9853 123.762 23.654 123.762 23.346C123.762 22.954 123.515 21.7967 123.02 19.874L124.252 19.398C124.467 20.0607 124.64 20.7607 124.77 21.498C124.91 22.226 124.98 22.842 124.98 23.346C124.98 24.2047 124.621 25.012 123.902 25.768C123.193 26.5333 122.269 27.126 121.13 27.546L120.528 26.23ZM126.081 21.96H126.473C128.228 21.96 129.278 21.68 129.623 21.12C129.651 21.036 129.665 20.9473 129.665 20.854C129.665 20.4247 129.409 19.888 128.895 19.244C128.382 18.6 127.663 17.9187 126.739 17.2L126.893 15.8L132.045 13.602L132.465 14.834L128.195 16.682C128.886 17.2607 129.502 17.9327 130.043 18.698C130.594 19.454 130.869 20.1773 130.869 20.868C130.869 21.0827 130.832 21.302 130.757 21.526C130.543 22.198 130.067 22.6973 129.329 23.024C128.592 23.3413 127.64 23.5 126.473 23.5H126.081V21.96ZM127.047 14.148L131.527 12.258L131.737 12.846L126.977 14.862L127.047 14.148ZM135.34 13.546C135.414 14.078 135.475 14.9273 135.522 16.094C135.568 17.2513 135.592 18.3293 135.592 19.328V19.944C135.582 20.504 135.606 20.9193 135.662 21.19C135.718 21.4607 135.844 21.6567 136.04 21.778C136.236 21.8993 136.548 21.96 136.978 21.96H137.048L137.132 22.73L137.048 23.5H136.978C135.988 23.5 135.293 23.2433 134.892 22.73C134.5 22.2073 134.304 21.3813 134.304 20.252C134.304 19.2253 134.276 18.0587 134.22 16.752C134.173 15.436 134.103 14.4653 134.01 13.84L135.34 13.546ZM137.163 21.96H137.275C138.003 21.96 138.568 21.9273 138.969 21.862C139.371 21.7967 139.66 21.7033 139.837 21.582C140.024 21.4513 140.15 21.2693 140.215 21.036C140.253 20.9147 140.271 20.742 140.271 20.518C140.271 20.266 140.248 19.9813 140.201 19.664C140.155 19.3373 140.127 19.1367 140.117 19.062L141.279 18.824C141.41 19.4493 141.475 20.2053 141.475 21.092C141.522 21.3627 141.643 21.5773 141.839 21.736C142.045 21.8853 142.32 21.96 142.665 21.96H142.763L142.847 22.73L142.763 23.5H142.665C142.208 23.5 141.802 23.3693 141.447 23.108C141.102 22.8467 140.845 22.5107 140.677 22.1L140.985 22.156C140.78 22.6507 140.402 23.0007 139.851 23.206C139.301 23.402 138.442 23.5 137.275 23.5H137.163V21.96ZM137.793 16.36C138.241 15.912 138.465 15.688 138.465 15.688L139.487 16.696C139.151 17.0413 138.811 17.382 138.465 17.718L137.457 16.696L137.793 16.36ZM140.257 16.36C140.705 15.912 140.929 15.688 140.929 15.688L141.951 16.696C141.615 17.0413 141.275 17.382 140.929 17.718L139.921 16.696L140.257 16.36ZM150.68 21.96H150.708C151.044 21.96 151.348 21.8713 151.618 21.694C151.898 21.5073 152.048 21.2973 152.066 21.064L153.004 21.204C152.967 21.624 152.836 22.0113 152.612 22.366C152.398 22.7207 152.122 23.0007 151.786 23.206C151.45 23.402 151.091 23.5 150.708 23.5H150.68V21.96ZM154.334 21.96L154.418 22.73L154.32 23.5H154.264C153.732 23.5 153.266 23.346 152.864 23.038C152.463 22.7207 152.169 22.2727 151.982 21.694C151.88 21.4047 151.707 20.6113 151.464 19.314L152.626 19.006C152.738 19.622 152.827 20.098 152.892 20.434C152.967 20.7607 153.032 21.008 153.088 21.176C153.256 21.6987 153.648 21.96 154.264 21.96H154.334ZM146.914 23.5V21.96H146.956C147.227 21.96 147.465 21.8853 147.67 21.736C147.876 21.5773 148.062 21.3487 148.23 21.05C148.436 20.6673 148.594 20.084 148.706 19.3L149.882 19.356C149.77 19.944 149.714 20.406 149.714 20.742C149.714 21.1433 149.794 21.4467 149.952 21.652C150.111 21.8573 150.363 21.96 150.708 21.96H150.736L150.82 22.73L150.736 23.5H150.708C150.176 23.5 149.747 23.3507 149.42 23.052C149.094 22.744 148.884 22.3147 148.79 21.764L149.056 21.736C148.842 22.2587 148.548 22.6833 148.174 23.01C147.81 23.3367 147.4 23.5 146.942 23.5H146.914ZM142.896 23.5L142.812 22.73L142.896 21.96H142.966C143.302 21.96 143.615 21.8853 143.904 21.736C144.203 21.5867 144.432 21.3953 144.59 21.162C144.777 20.9193 144.922 20.6533 145.024 20.364C145.136 20.0747 145.234 19.762 145.318 19.426L146.494 19.552C146.485 19.5987 146.434 19.79 146.34 20.126C146.247 20.462 146.2 20.7793 146.2 21.078C146.2 21.3673 146.256 21.5867 146.368 21.736C146.49 21.8853 146.676 21.96 146.928 21.96H146.956L147.04 22.73L146.956 23.5H146.9C146.48 23.5 146.126 23.3787 145.836 23.136C145.547 22.8933 145.365 22.5667 145.29 22.156C144.674 23.052 143.895 23.5 142.952 23.5H142.896ZM154.425 21.96H154.537C155.218 21.96 155.727 21.89 156.063 21.75C156.408 21.6007 156.632 21.3627 156.735 21.036C156.772 20.9147 156.791 20.7513 156.791 20.546C156.791 20.2473 156.735 19.7527 156.623 19.062L157.785 18.824C157.916 19.4493 157.981 20.2053 157.981 21.092C158.028 21.3627 158.154 21.5773 158.359 21.736C158.574 21.8853 158.844 21.96 159.171 21.96H159.269L159.353 22.73L159.269 23.5H159.171C158.714 23.5 158.308 23.3693 157.953 23.108C157.608 22.8467 157.351 22.5107 157.183 22.1L157.505 22.156C157.3 22.6413 156.954 22.9867 156.469 23.192C155.984 23.3973 155.34 23.5 154.537 23.5H154.425V21.96ZM155.139 16.626C155.503 16.2433 155.867 15.8793 156.231 15.534C156.595 15.8793 156.959 16.2433 157.323 16.626L156.231 17.718L155.139 16.626ZM159.378 21.96H159.966C160.946 21.96 161.637 21.8713 162.038 21.694C162.44 21.5073 162.64 21.218 162.64 20.826C162.631 20.5647 162.533 20.14 162.346 19.552C162.16 18.964 162.006 18.5487 161.884 18.306L163.046 17.676C163.233 18.0493 163.415 18.5487 163.592 19.174C163.779 19.7993 163.872 20.3453 163.872 20.812C163.872 21.6987 163.564 22.3707 162.948 22.828C162.332 23.276 161.408 23.5 160.176 23.5H159.378V21.96ZM158.846 25.474C159.294 25.026 159.518 24.802 159.518 24.802L160.54 25.81C160.204 26.1553 159.864 26.496 159.518 26.832L158.51 25.81L158.846 25.474ZM161.324 25.474C161.772 25.026 161.996 24.802 161.996 24.802L163.018 25.81C162.682 26.1553 162.342 26.496 161.996 26.832L160.988 25.81L161.324 25.474ZM165.766 23.416C165.84 22.856 165.878 21.876 165.878 20.476C165.878 19.1973 165.845 17.886 165.78 16.542C165.724 15.1887 165.658 14.288 165.584 13.84L166.914 13.546C166.979 14.0127 167.044 14.932 167.11 16.304C167.175 17.676 167.208 19.0013 167.208 20.28C167.208 21.736 167.161 22.8327 167.068 23.57L165.766 23.416Z" fill="white"/>
<path d="M184.505 14.8698C181.668 14.8698 179.38 17.1581 179.38 19.995C179.38 22.8319 181.668 25.1202 184.505 25.1202C187.342 25.1202 189.63 22.8319 189.63 19.995C189.63 17.1581 187.342 14.8698 184.505 14.8698ZM184.505 23.327C182.672 23.327 181.173 21.8327 181.173 19.995C181.173 18.1572 182.668 16.6629 184.505 16.6629C186.343 16.6629 187.837 18.1572 187.837 19.995C187.837 21.8327 186.339 23.327 184.505 23.327ZM191.036 14.6602C191.036 15.3248 190.5 15.8556 189.84 15.8556C189.175 15.8556 188.645 15.3203 188.645 14.6602C188.645 14 189.18 13.4647 189.84 13.4647C190.5 13.4647 191.036 14 191.036 14.6602ZM194.43 15.8734C194.354 14.2721 193.988 12.8536 192.815 11.685C191.647 10.5163 190.228 10.1505 188.627 10.0703C186.976 9.97658 182.03 9.97658 180.379 10.0703C178.782 10.1461 177.364 10.5118 176.191 11.6805C175.018 12.8492 174.656 14.2676 174.576 15.869C174.482 17.5194 174.482 22.4661 174.576 24.1165C174.652 25.7179 175.018 27.1363 176.191 28.305C177.364 29.4736 178.778 29.8394 180.379 29.9197C182.03 30.0134 186.976 30.0134 188.627 29.9197C190.228 29.8439 191.647 29.4781 192.815 28.305C193.984 27.1363 194.35 25.7179 194.43 24.1165C194.524 22.4661 194.524 17.5238 194.43 15.8734ZM192.298 25.8874C191.95 26.7616 191.276 27.4352 190.398 27.7876C189.082 28.3094 185.959 28.189 184.505 28.189C183.051 28.189 179.924 28.305 178.613 27.7876C177.739 27.4396 177.065 26.7661 176.713 25.8874C176.191 24.5715 176.311 21.4491 176.311 19.995C176.311 18.5408 176.195 15.414 176.713 14.1026C177.061 13.2283 177.734 12.5548 178.613 12.2024C179.929 11.6805 183.051 11.8009 184.505 11.8009C185.959 11.8009 189.086 11.685 190.398 12.2024C191.272 12.5503 191.945 13.2239 192.298 14.1026C192.82 15.4185 192.699 18.5408 192.699 19.995C192.699 21.4491 192.82 24.576 192.298 25.8874Z" fill="white"/>
</svg>
