<svg width="32" height="32" viewBox="0 0 32 32" fill="none" xmlns="http://www.w3.org/2000/svg">
<path d="M16 23.1333C17.2003 23.1333 18.1733 22.1603 18.1733 20.96C18.1733 19.7597 17.2003 18.7866 16 18.7866C14.7997 18.7866 13.8267 19.7597 13.8267 20.96C13.8267 22.1603 14.7997 23.1333 16 23.1333Z" fill="white"/>
<path d="M24.3733 12.7066V11.04C24.3733 7.43996 23.5066 2.66663 16 2.66663C8.49329 2.66663 7.62663 7.43996 7.62663 11.04V12.7066C3.89329 13.1733 2.66663 15.0666 2.66663 19.72V22.2C2.66663 27.6666 4.33329 29.3333 9.79996 29.3333H22.2C27.6666 29.3333 29.3333 27.6666 29.3333 22.2V19.72C29.3333 15.0666 28.1066 13.1733 24.3733 12.7066ZM16 24.9866C13.7733 24.9866 11.9733 23.1733 11.9733 20.96C11.9733 18.7333 13.7866 16.9333 16 16.9333C18.2133 16.9333 20.0266 18.7466 20.0266 20.96C20.0266 23.1866 18.2266 24.9866 16 24.9866ZM9.79996 12.5866C9.69329 12.5866 9.59996 12.5866 9.49329 12.5866V11.04C9.49329 7.13329 10.6 4.53329 16 4.53329C21.4 4.53329 22.5066 7.13329 22.5066 11.04V12.6C22.4 12.6 22.3066 12.6 22.2 12.6H9.79996V12.5866Z" fill="white"/>
</svg>
