<svg width="40" height="40" viewBox="0 0 40 40" fill="none" xmlns="http://www.w3.org/2000/svg">
<rect width="40" height="40" rx="20" fill="#1BB8FF"/>
<path d="M16.64 29.75H13.01C11.15 29.75 10.25 28.89 10.25 27.11V12.89C10.25 11.11 11.15 10.25 13.01 10.25H16.64C18.5 10.25 19.4 11.11 19.4 12.89V27.11C19.4 28.89 18.5 29.75 16.64 29.75ZM13.01 11.75C11.93 11.75 11.75 12.02 11.75 12.89V27.11C11.75 27.98 11.92 28.25 13.01 28.25H16.64C17.72 28.25 17.9 27.98 17.9 27.11V12.89C17.9 12.02 17.73 11.75 16.64 11.75H13.01Z" fill="white"/>
<path d="M26.9901 29.75H23.3601C21.5001 29.75 20.6001 28.89 20.6001 27.11V12.89C20.6001 11.11 21.5001 10.25 23.3601 10.25H26.9901C28.8501 10.25 29.7501 11.11 29.7501 12.89V27.11C29.7501 28.89 28.8501 29.75 26.9901 29.75ZM23.3601 11.75C22.2801 11.75 22.1001 12.02 22.1001 12.89V27.11C22.1001 27.98 22.2701 28.25 23.3601 28.25H26.9901C28.0701 28.25 28.2501 27.98 28.2501 27.11V12.89C28.2501 12.02 28.0801 11.75 26.9901 11.75H23.3601Z" fill="white"/>
</svg>
